<?xml version="1.0" standalone="no"?>
<!DOCTYPE svg PUBLIC "-//W3C//DTD SVG 20010904//EN"
 "http://www.w3.org/TR/2001/REC-SVG-20010904/DTD/svg10.dtd">
<svg version="1.0" xmlns="http://www.w3.org/2000/svg"
 width="577.000000pt" height="577.000000pt" viewBox="0 0 577.000000 577.000000"
 preserveAspectRatio="xMidYMid meet">
<metadata>
Created by potrace 1.11, written by Peter Selinger 2001-2013
</metadata>
<g transform="translate(0.000000,577.000000) scale(0.100000,-0.100000)"
fill="#000000" stroke="none">
<path d="M2575 5760 c-554 -68 -1022 -256 -1457 -586 -133 -101 -421 -389
-522 -522 -148 -195 -283 -425 -369 -629 -33 -77 -33 -79 -20 -142 7 -35 28
-92 47 -125 18 -34 39 -84 46 -113 19 -85 1 -123 -150 -303 -139 -166 -153
-193 -148 -283 l3 -52 62 90 c34 50 71 104 82 120 108 157 282 350 391 436 65
52 187 122 202 116 8 -2 -1 -12 -21 -23 -103 -58 -171 -110 -265 -203 -59 -56
-106 -107 -106 -112 0 -22 31 -4 110 61 131 108 227 168 417 263 62 31 153 84
204 119 174 120 201 138 205 138 28 0 -88 -115 -177 -174 -70 -47 -250 -147
-372 -208 -43 -21 -90 -47 -105 -57 -15 -10 -66 -44 -114 -75 -59 -39 -123
-95 -200 -175 -95 -100 -123 -136 -175 -232 -34 -63 -65 -130 -68 -149 -19
-107 -22 -143 -19 -220 5 -101 25 -199 55 -259 53 -111 288 -389 569 -676 204
-207 218 -224 250 -297 18 -43 37 -78 41 -78 3 0 11 6 17 13 11 13 -16 135
-40 181 -7 14 -87 101 -178 193 -274 279 -506 543 -584 666 -41 65 -56 147
-56 316 0 217 47 318 231 496 143 138 220 193 423 305 93 51 192 107 220 124
28 18 92 52 141 76 128 62 228 158 277 267 50 111 23 -59 -32 -204 -59 -155
-104 -200 -279 -280 -211 -97 -335 -162 -426 -223 -108 -72 -241 -196 -292
-271 -66 -96 -100 -255 -88 -413 6 -86 8 -92 53 -156 125 -178 421 -490 602
-637 77 -62 86 -74 98 -119 7 -28 9 -66 6 -89 l-7 -40 -14 34 c-27 65 -71 116
-280 326 -184 186 -256 266 -420 468 -24 29 -54 76 -69 106 -25 52 -26 59 -21
190 8 234 48 332 190 467 51 49 117 105 147 125 159 105 216 138 407 235 114
57 229 120 255 139 26 19 65 63 88 97 68 105 50 118 -45 31 -64 -60 -255 -179
-410 -256 -266 -132 -507 -322 -613 -482 -61 -93 -77 -167 -77 -365 0 -210 3
-220 122 -361 43 -52 87 -105 96 -119 30 -45 229 -260 363 -394 190 -190 244
-285 244 -432 0 -126 -19 -136 -68 -36 -59 122 -225 318 -448 529 -163 154
-256 265 -371 441 -27 41 -63 92 -82 115 l-34 42 7 -45 c23 -145 28 -158 97
-261 90 -134 94 -160 37 -240 -25 -36 144 -411 285 -631 124 -193 222 -314
402 -493 230 -230 447 -392 704 -524 98 -50 101 -51 135 -37 l34 14 6 -33 c4
-18 13 -36 22 -39 13 -5 15 40 9 420 l-6 427 23 33 c28 42 34 42 42 4 3 -17
23 -56 43 -87 70 -104 67 -89 71 -333 6 -293 -12 -397 -82 -472 l-25 -26 27
-7 c21 -5 31 -1 49 19 24 28 63 146 63 191 0 16 3 26 6 23 3 -4 6 -64 8 -135
1 -70 5 -134 9 -141 16 -24 37 -13 37 19 0 24 11 44 45 80 l45 48 0 -83 c0
-57 4 -88 15 -102 10 -13 17 -16 22 -7 10 14 9 458 -1 708 l-8 190 30 -28 c28
-27 29 -32 25 -90 -15 -180 64 -367 187 -448 24 -16 25 -21 23 -106 -1 -87
-29 -209 -54 -240 -15 -18 -4 -43 19 -43 31 0 65 108 84 271 l13 104 3 -197
c2 -167 5 -198 17 -198 11 0 15 13 15 53 0 48 4 57 35 87 l35 34 0 -65 c0 -60
-2 -65 -30 -84 -25 -17 -27 -21 -12 -27 9 -4 29 -7 45 -7 l27 -1 0 234 0 235
25 27 c35 38 66 128 73 208 6 89 16 70 42 -80 13 -80 20 -167 20 -269 1 -170
-13 -241 -60 -318 l-29 -47 83 0 84 0 7 105 c4 58 5 134 1 168 -6 61 5 205 25
319 13 76 75 205 146 303 63 87 63 87 238 182 66 36 148 85 181 108 l62 43 6
-152 c4 -83 11 -196 17 -251 5 -55 13 -177 18 -271 10 -191 30 -270 96 -383
37 -62 37 -63 74 -56 74 14 291 99 446 175 304 148 519 303 770 555 169 169
271 292 378 455 l55 85 5 190 c5 210 15 289 52 436 37 148 86 261 138 319 82
91 137 234 137 358 1 83 24 177 54 221 23 32 27 48 24 92 l-3 53 -43 -58 c-69
-91 -84 -134 -93 -269 -5 -66 -14 -136 -20 -156 -25 -76 -78 -168 -135 -231
-57 -63 -101 -176 -138 -357 -32 -154 -46 -256 -47 -356 -1 -45 -4 -109 -8
-142 -6 -55 -7 -58 -19 -37 -19 33 -28 190 -19 322 8 129 31 244 60 308 44 97
-31 63 -104 -47 -19 -30 -29 -57 -29 -83 0 -41 -14 -51 -23 -16 -9 32 10 106
35 142 12 17 47 61 78 97 30 37 72 94 93 127 21 34 59 85 85 114 57 63 106
140 120 188 6 19 13 67 17 105 9 94 40 227 65 276 12 22 44 65 72 96 l51 56
-6 71 c-8 86 -30 218 -58 344 -19 87 -22 92 -47 94 -51 3 -75 -1 -93 -18 -27
-24 -24 -31 11 -26 49 7 79 -6 103 -46 33 -52 37 -76 30 -161 -6 -72 -7 -74
-41 -88 -31 -13 -37 -13 -50 1 -13 13 -12 17 12 38 23 19 28 34 33 83 5 55 3
63 -22 93 -46 54 -115 33 -115 -35 0 -30 9 -29 35 4 26 32 41 25 55 -26 13
-49 -1 -91 -30 -91 -11 0 -20 5 -20 10 0 6 -7 10 -15 10 -8 0 -15 -6 -15 -14
0 -8 7 -21 15 -30 8 -8 15 -19 15 -24 0 -5 9 -21 21 -36 16 -20 29 -26 60 -26
33 0 39 -3 39 -21 0 -28 -32 -79 -97 -156 -75 -89 -93 -130 -104 -236 -5 -51
-14 -119 -19 -152 -5 -33 -10 -63 -10 -67 0 -17 -66 -81 -101 -99 -21 -10 -48
-29 -60 -42 -25 -25 -65 -109 -86 -182 -28 -92 -59 -140 -113 -175 -56 -36
-184 -89 -216 -90 -33 0 -137 -56 -170 -92 -17 -18 -41 -60 -54 -93 -32 -80
-147 -198 -240 -245 -36 -18 -72 -38 -80 -46 -9 -7 -47 -31 -85 -51 l-70 -38
-2 -104 -2 -103 -39 -47 c-48 -56 -62 -83 -62 -113 0 -13 -9 -29 -20 -36 -25
-15 -17 -32 14 -32 34 0 46 -19 46 -78 0 -49 -3 -57 -34 -86 -48 -45 -66 -86
-66 -154 0 -67 -11 -83 -51 -75 -39 8 -41 -24 -1 -33 81 -18 92 -29 92 -97 0
-60 -35 -190 -62 -229 -10 -15 -37 -41 -60 -59 l-41 -33 37 48 c20 26 36 56
36 66 0 9 7 23 15 30 16 13 20 40 7 40 -5 0 -14 17 -20 38 -6 21 -25 53 -42
72 -33 37 -49 95 -31 113 16 16 14 24 -9 30 -27 7 -64 90 -55 124 9 36 61 86
83 80 53 -17 62 -19 62 -11 0 5 -9 20 -19 33 -19 24 -58 32 -96 18 -30 -10
-64 56 -71 136 -4 52 -1 69 19 106 27 53 66 85 90 75 10 -4 33 -31 52 -60 19
-30 39 -54 45 -54 14 0 13 3 -18 73 -32 70 -69 102 -110 94 -39 -7 -51 17 -52
101 0 60 6 87 31 148 41 98 55 114 106 121 39 5 46 2 79 -31 20 -20 38 -36 40
-36 15 0 -13 60 -39 83 -25 21 -41 27 -79 27 -34 0 -48 4 -48 14 0 19 46 144
64 170 25 38 131 118 235 177 l100 57 11 -28 c13 -33 67 -86 76 -77 4 4 2 13
-4 20 -6 7 -18 39 -26 71 -13 49 -13 63 -2 90 45 105 160 132 223 52 12 -14
24 -26 27 -26 13 0 5 47 -15 79 l-20 33 77 73 c70 66 79 71 108 66 22 -5 32
-13 34 -29 2 -13 17 -31 33 -41 l29 -18 -42 -12 c-94 -28 -128 -75 -168 -230
-38 -152 -71 -191 -173 -210 -64 -12 -97 -26 -97 -43 0 -6 11 -8 28 -4 15 3
49 10 77 16 92 19 166 91 181 175 30 175 71 238 175 269 57 17 82 11 118 -28
14 -14 32 -26 42 -26 37 0 211 213 231 283 15 56 21 61 68 62 29 1 48 9 70 30
36 35 40 54 5 31 -35 -23 -92 -21 -100 4 -9 27 20 77 58 101 39 23 58 21 73
-9 12 -24 24 -19 24 10 0 32 -36 58 -82 58 -36 0 -47 -6 -85 -46 -43 -44 -44
-47 -43 -107 3 -122 -30 -193 -149 -320 l-64 -68 -31 29 c-17 16 -44 33 -61
37 -27 6 -28 8 -10 15 11 4 35 22 53 39 30 27 33 36 31 75 -2 24 2 50 7 58 6
7 14 21 17 31 6 15 10 16 27 7 12 -6 37 -10 57 -8 48 4 73 39 66 90 -5 40 -23
43 -23 4 0 -29 -18 -46 -51 -46 -34 0 -51 21 -52 66 -1 40 25 69 56 59 9 -3
26 -8 37 -11 14 -5 20 -2 20 9 0 37 -81 49 -130 20 -31 -18 -40 -38 -40 -94 0
-27 -8 -43 -35 -69 l-34 -33 -11 27 c-12 34 -11 37 85 156 73 91 115 157 115
180 0 6 7 27 15 47 l15 36 39 -41 c43 -47 77 -54 106 -22 11 12 31 20 50 20
19 0 39 8 49 19 13 15 24 18 40 11 29 -10 65 6 115 52 38 36 59 73 47 85 -3 3
-15 -6 -27 -20 -28 -37 -82 -38 -105 -2 -31 48 13 119 71 113 23 -2 31 -9 33
-26 2 -13 9 -21 15 -19 25 8 1 129 -30 153 -29 23 -99 12 -134 -22 -67 -65
-86 -153 -47 -232 15 -32 18 -49 11 -60 -13 -22 -33 -27 -33 -8 0 18 -15 21
-25 6 -21 -34 -83 19 -70 60 7 24 37 26 55 5 15 -18 30 -19 30 -2 0 15 -50 72
-71 79 -11 5 -12 9 -1 24 35 52 56 112 57 161 0 53 0 53 32 53 25 0 38 8 64
41 21 27 28 44 21 51 -6 6 -12 6 -16 -1 -13 -21 -36 -11 -52 22 -13 27 -13 38
-2 72 17 53 44 58 63 11 20 -47 32 -52 40 -17 6 30 -15 86 -35 93 -5 1 -11 21
-13 42 -2 34 2 41 27 55 43 24 54 46 37 73 -12 20 -12 23 5 33 10 5 29 21 43
34 l24 24 20 -27 c10 -14 25 -26 33 -26 19 0 18 3 -16 63 -16 30 -30 65 -30
78 0 54 -67 98 -116 76 -22 -9 -44 -46 -44 -72 0 -22 9 -18 32 10 22 28 50 32
68 10 19 -23 6 -96 -22 -118 -22 -19 -23 -18 -43 7 -25 31 -35 33 -35 5 0 -36
-34 -18 -49 26 -13 39 -13 42 28 122 22 46 41 90 41 98 0 9 12 20 26 25 18 7
24 15 20 26 -3 9 -6 18 -6 20 0 2 -11 4 -24 4 -32 0 -39 13 -38 64 1 23 -5 50
-14 61 -15 20 -15 20 -30 1 -18 -25 -18 -73 0 -108 8 -16 11 -28 6 -28 -20 0
-33 49 -36 136 -2 50 -7 99 -10 109 -7 18 -8 18 -15 -1 -4 -10 -8 -57 -8 -104
-1 -101 17 -147 66 -170 18 -8 33 -20 33 -27 0 -6 -15 -40 -34 -76 -42 -79
-52 -124 -36 -172 11 -35 51 -65 85 -65 8 0 15 -5 15 -12 0 -6 8 -20 18 -31
16 -19 16 -20 -2 -31 -38 -22 -54 -45 -61 -87 -5 -27 -16 -50 -30 -61 -45 -35
-45 -144 0 -193 14 -14 25 -28 25 -31 0 -2 -23 -4 -50 -4 -55 0 -74 -18 -52
-49 7 -9 15 -22 19 -30 8 -18 -15 -80 -43 -114 -27 -32 -31 -78 -9 -97 13 -11
13 -15 0 -33 -24 -34 -19 -82 10 -105 30 -24 31 -32 7 -32 -27 0 -62 42 -72
86 -9 38 1 98 55 334 30 128 36 207 40 465 2 188 -11 366 -35 497 -6 28 -10
99 -10 157 l0 107 -67 84 c-173 219 -465 483 -699 631 l-32 20 -29 -25 c-35
-29 -103 -49 -139 -40 -53 13 -212 131 -324 240 -108 105 -119 113 -185 133
-38 11 -71 18 -74 16 -8 -9 334 -335 411 -392 93 -68 118 -114 118 -216 0
-104 40 -220 155 -447 57 -113 133 -277 170 -365 36 -88 74 -178 84 -200 25
-53 87 -235 106 -310 23 -86 34 -230 28 -340 -3 -52 -8 -93 -10 -91 -3 3 -9
58 -13 123 -11 152 -25 234 -62 360 -45 156 -160 444 -258 649 -33 68 -60 127
-60 130 0 3 -29 67 -64 143 -78 166 -94 220 -99 332 -6 107 -28 155 -93 198
-26 17 -51 31 -56 31 -11 0 -10 -288 2 -379 10 -76 112 -401 160 -506 14 -33
65 -118 111 -190 136 -208 146 -226 177 -310 57 -151 61 -199 52 -630 -4 -161
-2 -195 12 -220 28 -52 51 -67 92 -60 20 4 36 5 36 1 0 -10 -59 -36 -83 -36
-33 0 -83 58 -98 112 -12 45 -5 333 11 431 9 60 -5 224 -26 296 -20 71 -163
347 -221 427 -20 28 -104 201 -131 269 -15 38 -78 274 -103 385 -14 63 -19
125 -19 237 0 191 -7 211 -98 289 -82 68 -257 239 -283 275 -12 17 -35 31 -65
38 -26 7 -48 10 -50 8 -2 -2 14 -33 37 -68 24 -38 102 -124 194 -214 93 -91
160 -164 169 -186 9 -21 19 -100 26 -197 5 -89 17 -196 25 -239 48 -249 131
-480 226 -631 62 -98 194 -359 214 -422 14 -45 18 -118 24 -395 7 -288 10
-348 26 -390 20 -56 45 -92 81 -116 29 -19 22 -29 -22 -29 -61 0 -108 89 -118
225 -3 33 -8 139 -11 235 -7 212 -20 346 -40 414 -8 28 -56 125 -105 216 -127
232 -203 399 -233 515 -44 166 -88 472 -93 639 -5 153 -19 216 -50 216 -17 0
-18 -19 -3 -57 7 -20 7 -39 -2 -70 -17 -64 -163 -199 -304 -283 -168 -99 -456
-240 -590 -289 -66 -24 -125 -48 -131 -53 -6 -4 -42 -19 -80 -32 -75 -25 -207
-89 -276 -133 -195 -125 -690 -582 -761 -703 -14 -25 -44 -96 -66 -157 -49
-136 -61 -160 -98 -194 -49 -46 -126 -76 -164 -64 -27 9 -18 18 45 49 69 34
118 88 145 160 33 88 89 193 124 234 18 20 50 60 71 87 22 28 56 68 77 90 21
22 77 85 125 140 240 274 418 409 703 534 47 21 106 48 131 59 42 20 88 38
255 98 260 95 553 246 661 340 70 63 114 133 114 184 0 52 -54 143 -121 204
-67 61 -85 69 -74 34 16 -54 16 -69 0 -120 -23 -70 -132 -178 -281 -277 -120
-80 -159 -100 -501 -256 -128 -58 -288 -135 -355 -170 -68 -35 -141 -67 -163
-70 l-40 -7 53 39 c52 38 96 59 302 146 582 247 918 459 959 608 22 80 4 139
-84 280 -41 63 -62 88 -80 91 -31 6 -31 2 -3 -42 53 -84 68 -130 68 -203 0
-102 -30 -160 -128 -256 -94 -91 -163 -136 -357 -234 -161 -81 -275 -124 -352
-133 -41 -4 -45 -3 -29 8 59 41 201 165 263 231 83 88 177 241 206 336 18 59
19 75 9 144 -8 55 -21 95 -42 133 -33 57 -29 69 12 31 28 -26 68 -157 68 -221
0 -62 -39 -198 -73 -250 -66 -104 -220 -266 -309 -328 -56 -38 -72 -58 -45
-58 33 0 203 84 362 178 123 73 289 234 336 325 41 81 46 136 19 217 -12 36
-32 81 -45 101 -22 34 -27 36 -111 48 -105 16 -606 23 -709 11z m666 -71 c25
-13 66 -99 75 -155 8 -55 -12 -148 -42 -201 -46 -80 -167 -196 -269 -259 -17
-10 11 24 61 77 120 125 175 230 180 341 2 49 -3 95 -16 141 -10 37 -16 67
-14 67 3 0 14 -5 25 -11z m469 -415 c0 -40 -6 -60 -32 -100 -95 -143 -314
-279 -633 -394 -66 -23 -167 -63 -225 -87 -57 -25 -138 -58 -180 -75 -119 -47
-298 -143 -384 -206 -44 -31 -140 -113 -214 -182 -148 -138 -178 -162 -148
-114 43 65 126 172 169 215 54 57 223 158 372 224 61 26 158 72 216 101 58 29
177 83 265 119 87 37 177 75 199 85 22 10 76 35 120 55 109 49 259 151 325
221 31 33 74 94 95 136 43 84 55 84 55 2z m411 -409 c57 -186 216 -547 342
-780 46 -83 124 -284 140 -360 8 -38 18 -151 22 -250 9 -256 29 -345 77 -345
10 0 16 -4 13 -10 -11 -18 -61 -11 -83 13 -36 38 -45 120 -39 356 l5 214 -30
91 c-43 133 -92 244 -165 369 -117 200 -174 311 -205 392 -50 132 -116 376
-122 450 l-6 70 15 -70 c8 -38 24 -101 36 -140z m-1456 136 c3 -5 1 -12 -5
-16 -5 -3 -10 1 -10 9 0 18 6 21 15 7z m-55 -26 c0 -26 -18 -33 -38 -13 -9 9
-7 14 6 24 25 19 32 17 32 -11z m1205 -284 c0 -169 4 -266 11 -282 6 -13 26
-60 44 -104 31 -74 63 -128 194 -326 143 -216 205 -410 206 -649 0 -41 4 -114
9 -161 5 -47 13 -165 17 -262 7 -174 7 -176 -14 -171 -25 7 -32 31 -32 108 0
33 -4 110 -10 170 -5 61 -16 192 -25 291 -20 253 -43 358 -104 475 -48 93
-124 218 -190 313 -38 55 -110 208 -134 282 -8 28 -21 105 -28 171 -10 106
-10 131 5 194 18 83 20 120 6 120 -5 0 -10 -4 -10 -9 0 -13 -90 -104 -150
-150 -59 -46 -356 -195 -530 -266 -167 -69 -439 -198 -510 -242 -36 -22 -90
-55 -120 -73 -200 -121 -327 -225 -472 -387 -118 -131 -156 -185 -238 -333
-61 -110 -132 -226 -171 -279 -31 -42 -60 -123 -74 -205 -10 -61 -20 -31 -20
62 l0 87 -47 9 c-27 5 -48 13 -48 17 0 5 31 18 70 29 61 18 74 27 104 66 20
25 61 94 91 152 93 177 138 254 185 317 66 90 285 309 372 373 107 79 276 189
349 227 88 45 250 125 294 144 28 12 58 26 68 32 10 5 69 29 131 54 63 24 145
59 183 78 37 19 79 38 93 42 14 4 77 34 141 67 93 48 136 78 227 159 62 55
112 104 112 109 0 6 3 10 8 10 4 0 7 -116 7 -259z m-1272 232 c12 -11 -15 -33
-41 -33 -24 0 -25 1 -7 20 18 20 36 25 48 13z m-176 -39 c-3 -3 -12 -4 -19 -1
-8 3 -5 6 6 6 11 1 17 -2 13 -5z m-7 -47 c0 -2 -13 -13 -29 -25 l-29 -21 -23
25 -22 24 51 0 c29 0 52 -1 52 -3z m2060 -60 c1 -21 -23 2 -36 33 l-15 35 25
-30 c14 -16 25 -34 26 -38z m-2163 -12 c-1 -1 -12 -8 -24 -14 -22 -11 -23 -10
-23 25 l0 37 25 -23 c14 -13 24 -24 22 -25z m-87 -2 l0 -36 -25 23 -26 24 23
13 c13 7 24 12 26 13 1 0 2 -17 2 -37z m-80 -38 c0 -3 -19 -5 -42 -5 -42 1
-42 1 -18 14 22 13 60 7 60 -9z m2380 -42 c0 -20 -3 -24 -11 -16 -7 7 -9 19
-6 27 10 24 17 19 17 -11z m-2410 -7 c0 -9 -40 -13 -46 -5 -3 5 6 9 20 9 14 0
26 -2 26 -4z m-185 -16 c-3 -5 -12 -10 -18 -10 -7 0 -6 4 3 10 19 12 23 12 15
0z m374 -3 c13 -17 5 -27 -24 -27 -31 0 -38 11 -17 26 22 17 27 17 41 1z
m2301 -22 c0 -7 -7 -18 -15 -25 -13 -11 -15 -7 -15 25 0 32 2 36 15 25 8 -7
15 -18 15 -25z m-2621 -21 c-8 -10 -15 -12 -23 -4 -7 7 -4 14 10 24 22 17 32
3 13 -20z m-114 6 c7 -12 -12 -40 -26 -40 -10 0 -12 34 -2 43 9 10 21 9 28 -3z
m355 -24 l23 -25 -24 -6 c-13 -3 -35 -4 -49 -1 -14 2 -28 5 -32 5 -17 2 -6 21
20 35 36 20 35 20 62 -8z m-420 -17 c0 -18 -2 -20 -15 -9 -13 11 -13 15 -3 21
18 12 18 12 18 -12z m2843 -9 c4 -17 0 -20 -31 -20 l-37 0 25 20 c32 25 36 25
43 0z m-2905 -22 c19 -19 14 -25 -18 -20 -25 3 -28 7 -19 18 14 17 22 17 37 2z
m377 -28 c32 -33 36 -40 22 -46 -9 -3 -49 3 -89 13 l-72 20 45 26 c24 15 46
27 49 27 3 0 23 -18 45 -40z m1593 -30 c2 -14 7 -29 12 -35 4 -5 10 -33 14
-62 10 -80 80 -240 136 -313 47 -60 100 -175 93 -201 -11 -47 -17 -48 -166
-47 -149 1 -252 -11 -378 -42 -135 -34 -171 -57 -171 -105 0 -31 47 -95 70
-95 9 0 64 16 122 35 l104 35 43 -42 c24 -23 43 -46 43 -51 0 -6 -28 -7 -67
-3 -74 7 -115 -6 -121 -37 -3 -14 5 -17 50 -18 29 -1 64 -4 78 -8 24 -7 22 -9
-28 -35 -29 -14 -61 -35 -72 -46 -10 -10 -32 -26 -49 -34 -38 -20 -71 -67 -71
-100 0 -14 2 -26 4 -26 2 0 12 -3 22 -7 14 -5 16 -3 11 11 -5 13 3 21 36 36
23 10 55 22 71 26 25 6 28 5 23 -10 -4 -10 -7 -31 -7 -48 0 -29 -1 -30 -40
-26 -22 2 -40 0 -40 -4 0 -26 147 -98 200 -98 17 0 20 -4 15 -20 -8 -27 12
-26 41 1 24 23 64 19 64 -7 0 -17 22 -18 38 -2 7 7 47 20 90 29 42 9 88 19
103 23 25 7 26 5 62 -111 62 -202 95 -489 59 -525 -18 -18 -22 -6 -14 48 4 27
8 69 7 93 l0 44 -60 13 c-134 28 -200 12 -247 -61 -13 -19 -26 -35 -29 -35 -4
0 -6 18 -5 39 1 44 -25 81 -56 81 -11 0 -41 -7 -68 -16 -36 -12 -53 -13 -68
-5 -23 12 -62 14 -87 5 -9 -4 -34 -32 -55 -63 -22 -31 -55 -74 -75 -96 l-35
-40 0 28 c0 16 8 49 19 75 52 129 111 313 117 364 5 49 4 57 -13 67 -20 10
-59 5 -79 -10 -12 -10 -61 -136 -89 -229 -9 -30 -23 -65 -31 -77 -13 -21 -16
-21 -49 -8 -41 18 -79 19 -108 4 -37 -20 -97 -82 -143 -146 -42 -59 -64 -77
-64 -52 0 5 13 36 28 67 41 84 26 128 -40 119 -36 -5 -38 -4 -38 24 0 50 -33
30 -43 -26 -18 -107 -59 -195 -89 -195 -13 0 -9 56 7 104 22 63 8 98 -37 94
-28 -3 -39 -13 -74 -66 -41 -63 -101 -132 -115 -132 -4 0 0 23 9 50 14 39 25
54 52 68 30 15 35 22 35 52 0 29 -4 36 -23 38 -17 3 -22 8 -18 19 34 88 28
133 -19 133 -27 0 -50 -32 -74 -102 -9 -27 -20 -49 -24 -49 -4 1 -23 1 -43 1
-34 0 -36 1 -30 28 3 15 9 48 12 75 7 47 7 47 -23 47 -39 0 -58 -17 -73 -65
-21 -66 -39 -95 -60 -95 -22 0 -36 -37 -26 -73 6 -24 -3 -35 -73 -92 l-24 -20
12 22 c6 12 11 45 11 73 0 41 -5 56 -25 75 -13 14 -32 25 -42 25 -43 -1 -100
-21 -118 -42 l-20 -23 -2 191 c-2 171 0 194 17 222 24 39 61 63 97 63 45 0
202 -36 215 -49 17 -17 48 -15 48 3 0 9 9 15 24 15 13 0 29 -7 36 -15 18 -22
50 -19 50 4 0 14 10 21 38 26 45 8 127 46 162 74 l25 21 -51 0 -51 0 0 45 c0
46 0 46 31 39 17 -4 50 -15 74 -25 37 -16 42 -22 32 -34 -14 -16 -10 -18 14
-9 9 4 21 15 26 25 13 23 -33 78 -91 111 -55 31 -61 60 -19 101 l32 31 -28 24
c-26 23 -34 24 -104 19 -52 -4 -113 -19 -190 -47 -126 -44 -142 -47 -160 -24
-42 49 64 121 193 131 93 7 244 -19 303 -53 95 -54 140 -134 149 -265 4 -51 8
-95 10 -97 2 -2 9 -1 16 4 9 5 10 47 6 169 -6 144 -10 170 -36 242 -49 137
-52 140 -153 157 -100 17 -101 32 -7 114 72 64 186 145 247 176 18 9 99 40
180 67 81 28 170 62 198 75 47 22 210 131 323 216 62 46 133 86 151 84 8 0 17
-12 18 -26z m958 9 c3 -6 1 -16 -5 -22 -8 -8 -17 -5 -33 11 l-22 22 26 0 c15
0 30 -5 34 -11z m-2933 -33 c-29 -25 -46 -23 -73 8 -11 14 -6 16 44 16 l57 0
-28 -24z m255 -38 c40 -41 48 -56 41 -70 -9 -16 -12 -16 -52 1 -23 10 -53 21
-67 24 -14 3 -34 12 -44 20 -18 13 -16 16 25 45 24 17 45 31 46 32 1 0 24 -24
51 -52z m53 34 c-7 -2 -18 1 -23 6 -8 8 -4 9 13 5 13 -4 18 -8 10 -11z m-398
-64 c-24 -27 -33 -22 -33 17 l0 36 24 -18 c22 -17 23 -19 9 -35z m-73 7 l0
-36 -24 18 -25 18 22 17 c28 23 27 24 27 -17z m3105 -35 c18 -19 17 -20 -3
-20 -15 0 -22 6 -22 20 0 11 2 20 3 20 2 0 12 -9 22 -20z m-2856 -8 c5 -10 37
-38 71 -63 l61 -44 -43 -6 c-47 -8 -103 1 -161 26 -32 13 -36 18 -27 34 10 20
69 71 82 71 4 0 12 -8 17 -18z m-309 -8 c0 -2 -9 -4 -21 -4 -11 0 -18 4 -14
10 5 8 35 3 35 -6z m20 -37 c0 -2 -14 -13 -31 -26 -29 -22 -31 -22 -50 -5 -30
27 -23 34 31 34 28 0 50 -1 50 -3z m3170 -22 c-12 -15 -30 -12 -30 6 0 5 10 9
21 9 18 0 19 -2 9 -15z m-3280 -54 c0 -5 -11 -16 -25 -25 -25 -16 -25 -16 -25
12 0 16 3 32 6 35 8 8 44 -10 44 -22z m3309 -18 l-1 -48 -10 34 c-5 18 -7 40
-4 47 10 27 16 14 15 -33z m-2979 -57 l73 -68 -44 6 c-59 9 -159 46 -159 59 0
16 41 78 50 75 4 -2 40 -34 80 -72z m3033 44 c3 -11 1 -23 -4 -26 -5 -3 -9 6
-9 20 0 31 6 34 13 6z m-3488 -84 c-15 -11 -25 -11 -40 -4 -32 17 -31 18 15
18 40 0 42 -1 25 -14z m-91 -32 c22 -8 20 -21 -4 -34 -18 -9 -20 -8 -20 15 0
27 1 28 24 19z m460 -51 l71 -58 -33 -3 c-18 -2 -39 1 -45 6 -7 5 -25 12 -42
16 -48 12 -54 22 -42 61 6 19 12 35 15 35 3 0 37 -26 76 -57z m-524 13 c0 -39
-29 -57 -57 -35 -14 12 -12 17 18 41 18 15 35 28 36 28 2 0 3 -15 3 -34z
m3672 -58 c-15 -15 -19 -11 -27 27 l-7 30 23 -22 c18 -18 21 -25 11 -35z
m-3768 -6 c3 -5 -11 -16 -31 -24 l-35 -17 23 25 c24 25 35 29 43 16z m3834
-24 c21 -21 13 -28 -29 -28 l-41 0 23 20 c28 23 31 24 47 8z m-3280 -30 c22
-18 48 -39 58 -46 16 -11 12 -12 -31 -7 -77 9 -85 13 -85 44 0 24 7 41 16 41
1 0 20 -15 42 -32z m3302 -53 c-12 -15 -30 -12 -30 6 0 5 10 9 21 9 18 0 19
-2 9 -15z m-3310 -94 c28 -22 24 -30 -18 -37 -24 -4 -31 -1 -36 18 -3 13 -6
31 -6 41 0 20 13 15 60 -22z m3306 -29 c-22 -5 -30 3 -21 18 5 8 11 7 22 -2
15 -12 14 -13 -1 -16z m-3460 -103 c-15 -21 -31 -39 -36 -39 -5 0 -14 -9 -20
-21 -11 -19 -9 -21 27 -19 97 5 99 -10 5 -32 -38 -9 -129 -46 -204 -82 -75
-36 -174 -79 -219 -96 -116 -42 -234 -124 -365 -254 -110 -109 -112 -112 -138
-193 -17 -56 -28 -118 -32 -192 l-7 -110 34 -53 c34 -54 433 -465 547 -564 64
-55 104 -68 130 -42 22 22 24 -1 2 -30 -26 -35 -52 -44 -86 -32 -68 26 -466
442 -639 669 -18 23 -20 41 -20 176 l0 150 41 85 c81 171 301 350 564 459 100
42 315 152 338 174 13 12 40 44 60 72 28 37 38 45 40 31 2 -9 -8 -35 -22 -57z
m3468 46 c-4 -8 -7 -15 -9 -15 -2 0 -5 7 -9 15 -3 9 0 15 9 15 9 0 12 -6 9
-15z m-859 -36 c30 -14 42 -44 58 -141 5 -34 3 -38 -33 -63 -36 -25 -46 -27
-112 -23 -89 4 -189 49 -255 113 -37 36 -42 46 -40 81 2 37 4 39 42 46 74 12
307 3 340 -13z m905 -15 c0 -31 -2 -35 -15 -24 -18 15 -19 32 -3 48 17 17 18
16 18 -24z m-3390 22 c0 -3 -4 -8 -10 -11 -5 -3 -10 -1 -10 4 0 6 5 11 10 11
6 0 10 -2 10 -4z m3680 -45 c0 -11 -11 -33 -25 -48 l-26 -28 23 48 c24 52 28
56 28 28z m-290 -158 c0 -20 -3 -24 -11 -16 -7 7 -9 19 -6 27 10 24 17 19 17
-11z m260 18 c0 -12 -61 -63 -67 -57 -6 6 17 49 31 58 15 11 36 10 36 -1z
m-3740 -21 c0 -17 -123 -162 -153 -181 -18 -10 -95 -39 -173 -64 -166 -53
-237 -97 -356 -224 -98 -104 -132 -171 -131 -259 l1 -64 160 -162 c88 -88 178
-182 199 -207 21 -25 58 -60 81 -78 54 -41 76 -89 67 -147 -6 -42 -18 -54 -56
-54 -11 0 -122 103 -277 258 -301 299 -312 315 -312 447 0 85 19 177 48 234
29 55 142 173 217 227 103 73 152 99 267 143 56 22 148 60 203 86 118 55 215
76 215 45z m3535 -9 c3 -5 1 -12 -5 -16 -5 -3 -10 1 -10 9 0 18 6 21 15 7z
m-2619 -92 c71 -18 102 -91 59 -139 -15 -17 -94 -37 -130 -33 -86 10 -105 28
-105 99 0 74 65 101 176 73z m1335 0 c46 -15 69 -44 69 -88 0 -60 -22 -81 -83
-81 -65 0 -128 17 -144 38 -15 18 -17 80 -4 101 23 35 101 50 162 30z m1457
-6 c-3 -15 -71 -62 -90 -63 -14 0 25 69 41 73 37 10 52 7 49 -10z m-3003 -122
c-8 -8 -25 51 -18 62 4 7 10 -3 14 -23 4 -19 6 -37 4 -39z m1670 58 c9 -14 -3
-59 -15 -59 -6 0 -10 16 -10 35 0 34 12 46 25 24z m1719 -5 c19 -19 12 -34
-15 -34 -110 0 -163 -178 -69 -228 l25 -13 -25 3 c-17 2 -32 16 -47 43 -38 67
-29 157 22 211 36 38 82 46 109 18z m-420 -63 c-16 -28 -119 -89 -131 -78 -2
3 4 20 15 38 13 24 33 39 73 55 30 12 56 21 57 19 2 -2 -4 -17 -14 -34z
m-3795 -37 c28 -36 12 -104 -25 -104 -11 0 -11 5 -2 25 14 32 -4 55 -44 55
-57 0 -241 -60 -298 -97 -136 -89 -240 -225 -240 -313 0 -53 52 -122 186 -246
64 -60 130 -124 147 -141 36 -39 67 -42 116 -12 45 27 49 19 12 -24 -17 -19
-31 -37 -31 -41 0 -3 15 -27 34 -53 36 -52 50 -90 35 -99 -5 -3 -9 0 -9 5 0
20 -54 86 -120 146 -70 64 -269 264 -357 357 -65 71 -68 98 -19 201 27 57 52
90 122 158 104 101 171 141 274 163 41 8 98 22 125 30 69 20 71 19 94 -10z
m3790 -70 c-28 -34 -94 -66 -148 -74 -31 -4 -58 -6 -59 -5 -2 2 6 17 19 34 19
26 29 31 68 32 25 0 62 7 81 14 47 18 55 18 39 -1z m-3893 -83 c83 -21 126
-52 175 -123 32 -48 34 -55 33 -133 -1 -158 -22 -174 -224 -176 -173 -1 -187
5 -209 94 -17 73 -8 120 33 165 36 38 39 39 176 33 72 -2 72 -3 62 -126 -12
-143 -11 -149 44 -142 80 9 108 56 98 167 -9 96 -54 162 -139 205 -52 26 -71
30 -140 30 -69 0 -86 -4 -127 -27 -103 -61 -153 -162 -141 -288 3 -36 10 -74
16 -85 22 -43 74 -98 115 -122 37 -22 56 -26 135 -27 82 -1 98 2 146 27 60 31
75 31 33 1 -42 -32 -89 -44 -166 -44 -90 0 -135 13 -188 53 -70 53 -98 109
-105 209 -10 147 41 243 161 299 72 34 113 36 212 10z m2168 -58 c-6 -51 -64
-221 -111 -323 -22 -50 -30 -160 -11 -160 8 0 21 6 30 13 18 13 102 115 136
164 28 40 50 47 92 30 28 -12 41 -12 92 1 72 18 83 10 79 -51 -3 -52 16 -75
48 -58 11 6 22 20 26 30 3 11 22 34 41 50 39 35 80 40 154 17 25 -7 51 -11 59
-8 12 4 13 -11 7 -92 -5 -79 -4 -97 8 -102 33 -13 100 45 180 156 19 27 41 46
55 48 22 3 21 1 -13 -44 -28 -37 -36 -56 -36 -90 0 -45 27 -84 59 -84 27 0 97
85 126 153 16 39 34 67 43 67 9 0 12 -6 8 -16 -4 -9 -13 -48 -22 -86 -12 -54
-13 -72 -4 -83 42 -51 150 36 150 121 0 21 5 46 10 54 9 13 11 13 20 0 5 -8
10 -20 10 -26 0 -7 13 -26 29 -43 41 -43 73 -30 107 47 13 30 34 44 34 22 0
-5 20 -32 45 -60 25 -29 48 -65 52 -81 3 -16 9 -32 14 -35 5 -3 27 13 50 35
44 45 49 47 49 28 0 -16 -44 -58 -90 -86 -44 -26 -144 -29 -178 -5 -22 15 -31
54 -12 54 6 0 10 6 10 13 0 10 -15 12 -62 9 -59 -4 -66 -7 -105 -48 -50 -52
-72 -59 -138 -44 -29 7 -80 8 -126 4 -70 -6 -79 -4 -98 15 -11 11 -21 30 -21
40 0 33 -15 32 -51 -5 -52 -55 -74 -62 -195 -66 -137 -4 -165 7 -178 70 -8 38
-12 42 -38 42 -34 0 -74 36 -84 74 -3 14 -10 26 -16 26 -17 0 -58 -53 -68 -89
-22 -76 -67 -138 -86 -119 -3 4 1 53 10 109 9 56 14 105 10 108 -9 9 -102 -95
-125 -140 -35 -70 -62 -79 -218 -73 l-136 6 -27 31 -27 30 -83 -51 c-46 -28
-91 -61 -100 -74 -10 -13 -29 -57 -44 -98 -14 -41 -37 -90 -51 -108 -23 -30
-29 -33 -71 -30 l-47 3 1 52 c3 83 9 95 84 152 75 57 87 80 43 82 -120 6 -112
3 -122 50 -4 18 -11 34 -17 36 -6 2 -31 -15 -57 -37 -75 -66 -147 -65 -147 1
0 16 -3 29 -6 29 -3 0 -28 -18 -55 -41 -39 -32 -55 -40 -81 -37 -30 3 -34 7
-42 46 -10 46 -32 56 -57 25 -31 -37 -93 -73 -127 -73 -52 0 -98 33 -106 75
l-7 35 -60 0 c-71 0 -93 -10 -114 -50 -19 -37 -43 -50 -99 -52 -66 -3 -96 27
-96 98 0 44 6 63 40 116 36 58 120 280 120 320 0 18 18 34 27 25 15 -16 -29
-192 -77 -302 -17 -39 -22 -69 -21 -134 0 -46 4 -88 10 -94 25 -25 110 72 112
127 0 17 4 40 8 51 8 20 8 20 15 -2 30 -96 131 -97 161 -2 8 23 54 49 88 49
35 0 60 -33 60 -79 0 -30 -9 -53 -37 -90 -20 -28 -36 -53 -36 -56 0 -3 11 -5
24 -5 31 0 206 157 206 184 0 3 -7 6 -15 6 -27 0 -16 28 15 39 17 5 32 16 35
23 2 7 11 39 20 71 10 35 22 57 31 57 18 0 18 -12 0 -80 -18 -69 -10 -80 59
-80 59 0 68 7 90 71 20 55 43 91 55 84 8 -5 3 -30 -24 -113 -6 -19 -3 -24 23
-33 40 -14 39 -26 -1 -37 -29 -7 -36 -16 -56 -72 -27 -75 -26 -104 5 -108 25
-4 85 55 141 138 57 85 79 94 67 28 -4 -24 -8 -68 -9 -98 -1 -52 0 -55 25 -58
20 -2 35 8 70 46 24 27 56 70 71 96 27 45 52 65 65 52 4 -4 -4 -30 -16 -59
-39 -89 -46 -126 -28 -144 14 -15 18 -15 41 0 13 9 39 35 58 58 54 68 131 150
151 161 13 7 33 4 68 -8 36 -13 55 -15 67 -8 24 14 55 81 97 204 20 58 38 111
40 118 2 6 16 12 30 12 25 0 25 -1 19 -57z m-2131 -3 c65 -32 82 -68 81 -166
-1 -105 -11 -154 -30 -154 -12 0 -13 18 -8 123 l7 124 -34 24 c-53 38 -149 39
-228 4 -84 -38 -121 -88 -121 -164 0 -70 29 -131 83 -175 49 -39 66 -46 87
-36 8 4 33 10 55 14 l40 6 -30 -25 c-56 -47 -120 -28 -211 62 -32 33 -64 115
-64 166 0 90 105 189 235 221 35 8 93 -1 138 -24z m3786 -6 c12 -11 -17 -17
-98 -21 -97 -5 -136 11 -54 22 27 4 53 8 58 10 11 3 88 -6 94 -11z m-121 -89
c45 -12 85 -24 88 -27 3 -4 -24 -8 -59 -10 -36 -1 -64 -1 -61 1 5 6 -74 41
-92 41 -8 0 -11 6 -8 15 5 11 13 13 28 9 11 -4 58 -17 104 -29z m-94 -81 c42
-25 78 -50 81 -55 11 -17 -42 -9 -96 14 -83 36 -93 40 -101 39 -14 -3 -9 7 14
28 12 11 23 20 24 20 1 0 36 -21 78 -46z m-3034 -80 c0 -81 -13 -95 -36 -38
-11 26 -10 37 6 72 11 23 21 42 25 42 3 0 5 -34 5 -76z m2933 -54 c-6 -21 -28
-15 -52 14 -8 9 -17 14 -21 11 -16 -10 -18 23 -3 44 l15 22 33 -35 c23 -24 32
-42 28 -56z m87 80 c18 -12 2 -12 -25 0 -13 6 -15 9 -5 9 8 0 22 -4 30 -9z
m-467 -136 c4 -4 7 -13 7 -21 0 -22 -29 -15 -46 12 -14 22 -15 30 -4 53 l13
27 11 -32 c6 -17 14 -35 19 -39z m-2693 -19 c0 -13 -9 -33 -20 -46 l-19 -24
-1 69 0 69 20 -23 c11 -13 20 -33 20 -45z m1993 -23 c13 -13 37 -26 53 -31 20
-5 30 -15 32 -32 9 -65 82 -93 220 -85 l93 5 -7 -37 c-18 -93 -118 -357 -209
-547 -26 -55 -56 -120 -66 -144 -43 -99 -263 -358 -373 -441 -144 -108 -215
-130 -404 -125 -174 4 -224 16 -322 76 -168 102 -269 184 -404 328 -161 173
-267 349 -315 525 -12 42 -28 94 -37 114 -21 49 -44 172 -44 233 l0 50 30 -16
c34 -18 112 -20 143 -4 12 6 36 25 53 41 l32 30 7 -34 c9 -41 19 -48 71 -48
28 0 53 8 78 25 43 29 46 30 46 10 0 -20 32 -35 75 -35 40 0 68 12 102 42 l22
20 24 -27 c17 -20 37 -30 67 -34 l44 -6 -52 -39 c-60 -46 -82 -92 -82 -170 0
-65 12 -77 79 -79 40 -2 54 3 76 23 27 24 85 132 85 157 0 23 19 23 72 -2 84
-39 201 -30 258 19 8 7 39 19 67 26 37 8 60 21 77 41 14 16 31 29 38 29 29 0
95 53 116 93 13 23 32 53 43 67 l20 25 -5 -25 c-3 -14 -8 -51 -11 -84 -7 -63
0 -76 42 -76 21 0 73 51 73 72 0 6 12 37 27 70 21 48 28 56 34 42 4 -11 18
-29 32 -42z m-2192 -30 c3 -39 0 -44 -29 -62 -18 -11 -32 -17 -32 -14 0 10 53
125 56 122 1 -2 4 -22 5 -46z m-201 8 c-12 -16 -25 -30 -30 -30 -5 0 -17 -3
-27 -7 -11 -4 -5 8 17 30 44 45 70 50 40 7z m3246 -8 c-8 -9 -19 -13 -22 -9
-10 9 16 38 28 31 6 -4 4 -13 -6 -22z m191 -42 l11 -29 -29 21 c-33 25 -37 38
-11 38 10 0 22 -12 29 -30z m-2919 -37 c1 -21 4 -63 7 -94 5 -44 3 -58 -9 -69
-9 -7 -18 -11 -21 -9 -6 7 -15 191 -9 200 13 22 31 7 32 -28z m3212 20 c-1
-33 -17 -55 -55 -73 -44 -21 -75 -19 -75 6 0 19 28 30 42 16 13 -13 38 2 38
24 0 7 8 18 18 23 21 12 32 14 32 4z m-3479 -24 c16 -8 19 -16 13 -47 -4 -20
-8 -48 -9 -62 -1 -14 -3 -28 -3 -32 -1 -3 -24 -22 -51 -42 -26 -20 -64 -58
-82 -86 -34 -50 -54 -65 -45 -32 2 9 12 64 21 122 19 119 30 142 83 169 44 24
47 24 73 10z m186 -11 c-3 -8 -6 -5 -6 6 -1 11 2 17 5 13 3 -3 4 -12 1 -19z
m2893 -19 c29 -39 21 -45 -24 -18 -34 20 -35 22 -19 35 10 7 19 14 20 14 1 0
11 -14 23 -31z m-2912 -33 c31 -43 32 -47 32 -148 l0 -103 -21 35 c-35 56 -89
119 -110 125 -15 5 -19 16 -19 53 0 50 6 66 30 75 38 14 57 6 88 -37z m2762
35 c15 -1 76 -88 68 -97 -3 -2 -16 5 -31 16 -14 11 -29 20 -34 20 -11 0 -63
53 -63 63 0 4 10 5 23 3 12 -3 29 -5 37 -5z m-82 -99 c29 -59 29 -61 7 -44
-13 10 -36 33 -51 51 -26 31 -26 32 -8 46 11 7 19 13 20 12 0 -1 15 -30 32
-65z m-82 -44 c9 -29 23 -65 31 -80 21 -44 -3 -33 -36 15 -32 47 -47 90 -36
106 13 21 24 10 41 -41z m-2653 -79 c19 -24 46 -66 62 -92 25 -43 27 -55 22
-106 -4 -32 -10 -67 -14 -79 -9 -23 -3 -28 -132 129 -21 26 -24 40 -24 112 -1
45 2 88 7 95 10 17 36 -2 79 -59z m-116 29 c-3 -18 -9 -63 -13 -100 -6 -65 -8
-68 -56 -109 -27 -23 -62 -59 -78 -80 l-27 -39 -5 33 c-3 17 -2 57 1 88 7 59
25 88 125 197 46 51 60 53 53 10z m2693 -10 c6 -24 17 -60 24 -80 25 -65 -6
-45 -42 28 -26 52 -30 69 -21 80 19 23 28 16 39 -28z m-2420 -81 c-17 -18 -17
-17 -24 24 -5 33 -3 46 11 61 18 20 18 19 24 -23 5 -34 3 -48 -11 -62z m2365
-79 c11 -24 11 -28 0 -28 -20 0 -45 40 -45 70 0 14 -5 31 -11 37 -8 8 -7 17 2
34 11 22 13 20 26 -31 7 -30 20 -67 28 -82z m-83 -46 c8 -16 9 -25 1 -33 -24
-24 -51 88 -30 125 11 19 12 17 15 -24 1 -25 8 -55 14 -68z m-2260 -91 c-4
-10 -23 -37 -43 -60 -43 -49 -55 -38 -35 31 8 23 17 68 21 98 4 34 15 64 29
78 l21 24 7 -76 c4 -42 4 -85 0 -95z m77 43 c16 -49 27 -92 24 -97 -2 -4 -17
3 -33 15 -27 22 -29 27 -29 102 -1 44 1 77 4 74 3 -3 18 -45 34 -94z m-393
-51 c-2 -49 -5 -120 -5 -159 l-1 -70 -43 -31 -43 -30 -22 56 c-36 94 -38 140
-8 198 23 46 97 123 118 123 5 0 7 -39 4 -87z m155 -29 c19 -41 19 -45 4 -101
-9 -32 -26 -81 -37 -110 l-21 -52 -34 37 -34 37 5 135 c5 177 8 182 58 134 21
-21 47 -57 59 -80z m2336 64 c-3 -8 -6 -5 -6 6 -1 11 2 17 5 13 3 -3 4 -12 1
-19z m962 -35 c2 -2 -10 -3 -29 -3 -28 0 -31 2 -20 15 10 12 16 13 29 3 9 -7
18 -14 20 -15z m-3624 -206 c9 -33 26 -79 37 -104 19 -43 19 -61 14 -421 -3
-208 -6 -420 -6 -472 l-1 -95 -29 34 c-97 114 -160 347 -159 588 0 76 4 161 9
188 5 28 14 85 19 127 10 73 48 255 74 343 11 40 11 40 18 -45 4 -47 15 -111
24 -143z m3495 116 c0 -36 0 -36 -20 -18 -19 17 -19 19 -4 37 23 24 24 24 24
-19z m-3007 -43 l-6 -64 -29 34 -28 34 32 33 c17 18 33 32 34 30 1 -1 0 -31
-3 -67z m68 54 c20 -18 16 -37 -19 -79 l-25 -30 6 49 c4 27 7 55 7 62 0 18 9
18 31 -2z m-1446 -23 c3 -5 1 -12 -5 -16 -5 -3 -10 1 -10 9 0 18 6 21 15 7z
m1575 -107 c0 -65 -12 -194 -19 -194 -3 0 -6 46 -7 103 -1 57 -4 121 -8 143
l-7 39 20 -25 c13 -16 21 -40 21 -66z m-270 26 c0 -3 -14 -14 -32 -24 -31 -19
-31 -19 -24 0 4 10 10 32 13 48 l6 29 18 -24 c10 -13 19 -26 19 -29z m3030 35
c11 -13 8 -15 -14 -15 -25 0 -33 10 -19 23 10 11 19 8 33 -8z m-4283 -1 c-3
-3 -12 -4 -19 -1 -8 3 -5 6 6 6 11 1 17 -2 13 -5z m1451 -82 l-3 -34 -28 30
-28 29 23 28 22 28 8 -24 c5 -13 8 -38 6 -57z m-162 -23 c-3 -17 -6 -37 -6
-44 0 -7 -19 -25 -42 -40 -23 -15 -63 -50 -90 -78 -39 -41 -48 -46 -48 -29 0
31 54 144 81 168 29 26 79 53 98 54 10 0 12 -8 7 -31z m353 -109 c19 -116 19
-116 -39 -74 l-50 36 0 61 c0 34 3 73 7 85 6 24 6 24 39 -10 27 -27 35 -45 43
-98z m-1539 88 c0 -5 -4 -8 -10 -8 -5 0 -10 10 -10 23 0 18 2 19 10 7 5 -8 10
-18 10 -22z m1314 -11 c48 -45 56 -74 39 -135 -5 -22 -10 -20 -74 44 -74 74
-87 107 -46 124 32 13 30 14 81 -33z m2796 18 c0 -8 -4 -17 -10 -20 -6 -4 -10
5 -10 20 0 15 4 24 10 20 6 -3 10 -12 10 -20z m-3201 -88 l1 -38 -35 28 c-42
34 -43 45 -7 71 l27 21 7 -22 c3 -12 6 -39 7 -60z m65 35 c12 -24 12 -32 -1
-62 -14 -32 -16 -33 -23 -15 -5 11 -9 42 -9 68 -1 52 9 55 33 9z m3076 34 c0
-3 -4 -8 -10 -11 -5 -3 -10 -1 -10 4 0 6 5 11 10 11 6 0 10 -2 10 -4z m-4005
-37 c10 -15 -1 -23 -20 -15 -9 3 -13 10 -10 16 8 13 22 13 30 -1z m3952 -15
c-3 -3 -12 -4 -19 -1 -8 3 -5 6 6 6 11 1 17 -2 13 -5z m-2832 -141 c-3 -65 -7
-118 -8 -118 -1 0 -21 -15 -43 -32 l-41 -32 -27 52 c-40 79 -36 96 40 177 37
38 71 70 77 70 6 0 7 -40 2 -117z m164 -21 c10 -24 9 -38 -9 -83 -32 -87 -32
-87 -80 -48 l-42 34 6 103 c3 56 8 107 11 112 8 14 99 -80 114 -118z m2656 99
c-13 -14 -17 -13 -32 2 -17 17 -16 18 15 15 28 -2 30 -4 17 -17z m-2361 -40
c7 -34 6 -45 -5 -52 -25 -16 -29 -10 -29 47 0 67 20 70 34 5z m-754 -56 c0
-54 -3 -63 -19 -68 -16 -4 -21 2 -26 33 -4 21 -3 59 0 85 7 44 8 45 26 29 15
-13 19 -31 19 -79z m-726 56 c3 -5 -1 -14 -9 -21 -13 -10 -15 -9 -15 9 0 21
14 28 24 12z m1266 -59 c0 -64 -2 -70 -26 -81 -23 -10 -26 -9 -21 4 4 8 9 38
13 67 6 46 18 78 30 78 2 0 4 -31 4 -68z m2519 54 c9 -10 8 -16 -4 -26 -13
-11 -15 -8 -15 14 0 30 3 32 19 12z m-2435 -26 c24 -16 46 -37 50 -45 8 -22 8
-110 0 -118 -4 -4 -24 9 -46 28 -21 19 -43 35 -48 35 -6 0 -10 28 -10 65 0 36
3 65 6 65 3 0 25 -13 48 -30z m2366 4 c0 -22 -2 -25 -15 -14 -12 10 -13 16 -4
26 16 20 19 18 19 -12z m-2174 -11 c-7 -7 -26 7 -26 19 0 6 6 6 15 -2 9 -7 13
-15 11 -17z m-743 -2 c17 -7 27 -20 32 -43 4 -18 27 -74 51 -125 35 -73 44
-103 44 -145 0 -85 -34 -241 -68 -315 -24 -53 -93 -156 -99 -150 -3 3 -3 111
-2 239 2 128 2 304 1 391 -2 99 1 157 7 157 5 0 21 -4 34 -9z m-753 -21 c0 -5
-7 -10 -16 -10 -8 0 -12 5 -9 10 3 6 10 10 16 10 5 0 9 -4 9 -10z m3625 -20
c3 -5 -3 -10 -15 -10 -12 0 -18 5 -15 10 3 6 10 10 15 10 5 0 12 -4 15 -10z
m-2161 -117 c4 -67 4 -69 -31 -106 -19 -21 -37 -36 -40 -33 -3 3 -2 53 2 111
6 91 10 107 28 120 20 14 22 13 29 -5 4 -10 9 -50 12 -87z m134 28 c22 -28 26
-42 24 -94 -1 -33 -4 -62 -6 -64 -4 -5 -97 57 -108 72 -4 6 -8 28 -8 50 0 22
-4 54 -9 72 -5 17 -7 34 -4 37 11 10 85 -39 111 -73z m-1525 14 c4 -8 2 -17
-3 -20 -6 -4 -10 3 -10 14 0 25 6 27 13 6z m3557 6 c0 -19 -22 -23 -38 -7 -15
15 -14 16 11 16 15 0 27 -4 27 -9z m-2950 -96 c0 -95 0 -95 -25 -95 -25 0 -25
1 -25 78 0 89 4 97 48 111 1 1 2 -42 2 -94z m661 3 c9 -17 -9 -168 -20 -168
-3 1 -18 11 -33 23 -25 20 -28 31 -34 109 -4 47 -4 94 0 104 6 15 11 13 42
-17 20 -19 40 -42 45 -51z m-119 -4 c-5 -119 -10 -139 -43 -158 -17 -10 -32
-16 -34 -14 -9 9 -45 111 -45 128 0 25 94 124 112 118 9 -4 12 -23 10 -74z
m468 24 c0 -5 -4 -8 -10 -8 -5 0 -10 10 -10 23 0 18 2 19 10 7 5 -8 10 -18 10
-22z m-1575 12 c3 -5 -1 -10 -10 -10 -9 0 -13 5 -10 10 3 6 8 10 10 10 2 0 7
-4 10 -10z m865 -19 c0 -16 -3 -43 -6 -60 l-6 -31 -24 23 c-29 28 -30 44 -2
74 28 30 38 29 38 -6z m59 3 c27 -34 27 -34 -9 -79 l-30 -38 0 72 c0 39 4 71
9 71 5 0 19 -12 30 -26z m2457 -21 c-11 -11 -17 4 -9 23 7 18 8 18 11 1 2 -10
1 -21 -2 -24z m70 11 c-4 -9 -9 -15 -11 -12 -3 3 -3 13 1 22 4 9 9 15 11 12 3
-3 3 -13 -1 -22z m-1866 -107 l-1 -62 -19 24 c-22 26 -27 80 -8 99 20 20 28 2
28 -61z m62 50 l27 -22 -25 -43 c-14 -24 -27 -42 -29 -40 -8 8 -15 128 -8 128
4 -1 20 -11 35 -23z m97 -31 c42 -45 61 -133 61 -285 0 -160 -12 -240 -46
-297 -23 -42 -77 -94 -95 -94 -6 0 -8 116 -6 298 3 291 3 298 27 349 14 29 28
52 31 53 3 0 16 -11 28 -24z m-370 -114 l1 -73 -24 18 c-27 20 -56 64 -56 85
0 8 15 33 33 57 l32 42 6 -28 c4 -15 7 -61 8 -101z m98 76 c18 -21 13 -51 -19
-98 -39 -58 -48 -51 -48 38 0 44 -3 88 -7 98 -6 16 -4 15 26 -2 18 -10 39 -27
48 -36z m1862 -14 c-9 -11 -15 -12 -23 -4 -8 8 -7 13 4 20 20 12 33 1 19 -16z
m-3209 -4 c0 -5 -7 -10 -16 -10 -8 0 -12 5 -9 10 3 6 10 10 16 10 5 0 9 -4 9
-10z m435 -100 c0 -99 -1 -105 -21 -108 -18 -3 -22 4 -27 35 -9 52 -9 168 0
177 4 4 16 6 28 4 19 -3 20 -10 20 -108z m292 84 c3 -9 -3 -25 -16 -37 l-21
-21 0 30 c0 44 24 62 37 28z m263 -86 l0 -73 -31 49 -31 50 26 23 c15 13 29
23 32 23 2 0 4 -33 4 -72z m78 31 c1 -8 -9 -32 -23 -54 l-24 -40 -1 69 0 68
23 -14 c12 -9 23 -22 25 -29z m-1048 0 c0 -6 -4 -7 -10 -4 -5 3 -10 11 -10 16
0 6 5 7 10 4 6 -3 10 -11 10 -16z m1435 11 c4 -6 15 -8 26 -5 15 5 19 1 19
-14 0 -13 -7 -21 -17 -21 -10 0 -28 -3 -40 -6 -20 -6 -23 -3 -23 25 0 31 21
43 35 21z m-374 -164 l-41 -41 0 37 c0 25 11 52 35 88 19 29 36 57 37 64 1 6
3 -16 5 -48 4 -58 3 -61 -36 -100z m308 -113 l3 -267 -24 30 c-34 40 -77 116
-89 156 -5 18 -12 70 -15 116 l-5 84 49 52 c27 28 54 62 61 74 6 12 13 22 14
22 1 0 4 -120 6 -267z m-649 161 c0 -61 -4 -79 -17 -90 -33 -25 -53 -17 -53
19 1 70 33 147 62 147 4 0 8 -34 8 -76z m760 -9 c0 -30 -4 -55 -9 -55 -5 0
-23 -3 -40 -6 l-31 -6 0 55 c0 50 2 56 23 60 57 11 57 11 57 -48z m-1068 -135
c-3 -69 -6 -80 -24 -85 -11 -4 -22 -5 -24 -2 -3 2 -2 41 2 86 6 74 9 81 28 81
20 0 21 -4 18 -80z m697 -57 l0 -138 -42 -34 -42 -33 -3 122 -3 121 37 50 c19
27 40 49 45 49 5 0 9 -61 8 -137z m371 49 c0 -56 -1 -58 -32 -70 -17 -6 -33
-11 -34 -9 -1 1 -5 30 -9 64 l-7 61 29 5 c15 2 34 5 41 6 8 1 12 -16 12 -57z
m-859 11 c7 -361 9 -496 5 -492 -5 4 -31 42 -91 130 -18 26 -37 72 -44 106
-12 56 -12 61 11 94 12 19 41 71 63 116 22 45 43 82 48 82 4 1 7 -16 8 -36z
m89 -196 c-8 -11 -23 -23 -32 -28 -17 -9 -18 -2 -18 100 0 110 0 110 28 125
l27 14 5 -96 c4 -77 2 -101 -10 -115z m770 38 c0 -50 -2 -56 -30 -70 -16 -8
-31 -15 -35 -15 -3 0 -5 27 -5 59 0 56 2 60 28 69 42 16 42 16 42 -43z m-1070
15 c0 -25 -4 -30 -25 -30 -20 0 -25 5 -25 24 0 22 10 30 43 35 4 0 7 -12 7
-29z m710 -198 l0 -98 -50 -49 -50 -49 0 111 0 111 43 36 c23 20 45 36 50 36
4 0 7 -44 7 -98z m-395 57 c4 -16 4 -57 0 -90 -6 -47 -12 -63 -33 -80 l-27
-21 -3 93 c-3 87 -1 94 20 111 31 24 35 23 43 -13z m755 -3 c0 -41 -9 -49 -45
-40 -36 9 -35 49 3 62 41 15 42 15 42 -22z m56 -125 l-36 -36 0 43 c0 37 4 45
33 62 l32 20 3 -27 c3 -19 -6 -35 -32 -62z m9 -157 c-14 -13 -30 -24 -36 -24
-5 0 -9 23 -9 52 0 45 4 56 33 86 l32 33 3 -61 c3 -56 0 -64 -23 -86z"/>
<path d="M1235 3386 c-61 -29 -139 -62 -175 -74 -150 -50 -280 -132 -401 -252
-121 -119 -141 -164 -143 -314 -1 -106 1 -116 24 -148 14 -20 43 -51 65 -69
22 -19 123 -118 224 -221 101 -103 192 -190 203 -194 12 -3 26 0 35 9 14 13
-4 34 -158 187 -96 95 -205 200 -242 234 -94 83 -111 119 -104 216 9 109 20
139 85 216 117 140 267 242 416 283 110 31 219 83 254 123 19 21 32 42 30 47
-1 6 -53 -14 -113 -43z"/>
<path d="M2246 3324 c-19 -18 -21 -65 -4 -82 20 -20 86 -15 98 7 14 26 13 28
-11 34 -17 5 -20 11 -15 31 6 24 4 26 -23 26 -16 0 -37 -7 -45 -16z"/>
<path d="M3576 3324 c-19 -18 -21 -65 -4 -82 7 -7 29 -12 50 -12 28 0 40 5 49
21 9 18 8 24 -5 31 -9 5 -16 20 -16 33 0 21 -5 25 -29 25 -16 0 -37 -7 -45
-16z"/>
<path d="M1058 2870 c-9 -6 -24 -29 -32 -53 -19 -50 -9 -136 19 -167 24 -26
75 -26 108 0 64 51 60 206 -5 224 -33 8 -71 7 -90 -4z m80 -133 c27 -25 28
-39 3 -61 -17 -16 -19 -15 -24 14 -4 16 -16 38 -27 47 -11 10 -20 21 -20 26 0
13 43 -3 68 -26z"/>
<path d="M2272 2683 c-35 -4 -45 -9 -58 -35 -20 -38 -31 -143 -16 -152 16 -10
95 62 136 124 33 49 35 55 19 61 -10 4 -22 7 -28 7 -5 -1 -29 -3 -53 -5z m30
-60 c-11 -16 -35 -41 -52 -58 l-33 -30 6 30 c13 70 24 85 62 85 l36 0 -19 -27z"/>
<path d="M3843 2658 c-31 -35 -45 -67 -45 -106 0 -90 100 -86 138 5 20 46 17
66 -11 97 -30 32 -55 33 -82 4z m59 -20 c25 -20 27 -40 7 -79 -22 -44 -48 -57
-66 -33 -18 25 -16 54 7 92 22 35 29 38 52 20z"/>
<path d="M3044 2634 c-58 -61 -39 -134 34 -134 41 0 62 31 62 91 0 32 -6 51
-18 62 -27 25 -41 21 -78 -19z m64 -3 c20 -12 2 -95 -21 -99 -21 -4 -47 15
-47 35 0 14 40 73 49 73 3 0 12 -4 19 -9z"/>
<path d="M1915 2648 c-6 -18 -8 -38 -6 -67 l1 -25 30 29 c38 37 41 75 5 75
-14 0 -28 -6 -30 -12z"/>
<path d="M4732 2600 c-25 -41 -9 -90 30 -90 39 0 51 70 16 94 -29 20 -31 20
-46 -4z"/>
<path d="M2621 2337 c-30 -37 -54 -137 -32 -137 8 0 41 69 55 117 8 25 -7 38
-23 20z"/>
<path d="M2808 2007 c-24 -19 -69 -59 -102 -89 -32 -31 -76 -64 -97 -74 -47
-21 -52 -42 -9 -36 18 2 35 -2 44 -11 9 -8 35 -18 58 -22 24 -4 76 -18 116
-31 85 -28 175 -31 248 -9 27 8 78 20 113 25 35 6 76 17 92 25 15 8 37 15 49
15 11 0 20 5 20 10 0 6 -4 10 -9 10 -6 0 -46 35 -91 77 -145 137 -177 154
-244 128 -40 -15 -46 -15 -74 -1 -45 23 -65 20 -114 -17z m152 -8 c19 0 51 2
70 6 32 6 43 2 95 -38 33 -25 80 -67 105 -93 l45 -47 -51 34 c-28 19 -78 52
-110 73 -57 39 -59 39 -110 28 -37 -7 -62 -8 -87 0 -30 9 -42 7 -82 -12 -27
-13 -62 -35 -79 -50 -36 -30 -87 -63 -90 -58 -2 2 37 41 87 86 89 83 91 84
131 77 23 -3 57 -6 76 -6z"/>
<path d="M2505 1820 c-2 -4 4 -18 15 -30 22 -25 46 -16 35 12 -7 18 -42 31
-50 18z"/>
<path d="M3353 1794 l-28 -26 25 6 c14 3 31 6 38 6 6 0 12 9 12 20 0 27 -13
25 -47 -6z"/>
<path d="M2745 1660 c10 -16 82 -60 98 -60 22 0 72 -47 56 -52 -8 -3 -11 -8
-8 -12 3 -3 20 -1 38 5 23 8 43 8 76 0 59 -15 62 -14 37 9 -12 12 -22 25 -22
29 0 11 25 21 49 21 10 0 40 16 67 35 52 37 39 49 -19 18 -45 -25 -276 -24
-324 1 -36 18 -57 21 -48 6z"/>
<path d="M3967 5511 c90 -88 221 -184 275 -203 21 -8 43 -5 94 12 l67 23 -24
18 c-35 28 -374 194 -444 218 l-60 21 92 -89z"/>
<path d="M5426 3984 c-9 -24 12 -44 24 -24 5 8 8 19 7 24 -6 17 -24 17 -31 0z"/>
<path d="M131 3769 c-10 -34 -10 -44 3 -64 9 -14 16 -44 16 -67 0 -43 -7 -57
-71 -139 -18 -23 -30 -57 -38 -104 -7 -38 -15 -83 -18 -99 -8 -41 6 -29 99 88
94 117 117 163 118 229 0 58 -16 99 -62 154 l-35 42 -12 -40z"/>
<path d="M5366 3563 c-12 -12 -6 -43 9 -43 8 0 15 9 15 19 0 21 -13 34 -24 24z"/>
<path d="M5560 3440 c0 -11 4 -20 9 -20 13 0 32 26 24 33 -13 14 -33 6 -33
-13z"/>
<path d="M5464 3156 c-7 -20 2 -46 16 -46 5 0 10 9 10 20 0 11 0 23 1 27 1 15
-21 14 -27 -1z"/>
<path d="M5250 3045 c0 -9 5 -15 11 -13 6 2 11 8 11 13 0 5 -5 11 -11 13 -6 2
-11 -4 -11 -13z"/>
<path d="M5754 2828 c-4 -13 -6 -36 -5 -53 0 -16 -4 -79 -10 -140 -13 -132
-39 -194 -123 -305 -71 -92 -98 -145 -137 -263 -43 -129 -59 -237 -65 -427
l-5 -165 35 65 c31 57 35 74 36 140 0 91 24 253 44 306 8 22 22 65 30 96 21
74 76 178 132 246 47 57 47 59 64 167 12 82 26 355 17 355 -3 0 -9 -10 -13
-22z"/>
<path d="M5320 2705 c0 -23 2 -24 20 -15 11 6 20 17 20 25 0 8 -9 15 -20 15
-15 0 -20 -7 -20 -25z"/>
<path d="M5052 2668 c2 -12 10 -23 18 -23 22 0 19 39 -3 43 -15 3 -18 -1 -15
-20z"/>
<path d="M4830 2272 c-39 -18 -63 -40 -81 -74 -25 -49 -24 -74 6 -103 34 -35
108 -35 154 -1 48 36 60 56 61 103 0 33 -5 46 -27 63 -36 28 -56 10 -25 -23
27 -29 27 -38 1 -70 -22 -29 -88 -52 -119 -42 -43 14 -9 91 54 124 14 8 26 18
26 23 0 9 -29 10 -50 0z"/>
<path d="M5657 2188 c-55 -108 -111 -293 -120 -393 l-7 -70 24 50 c24 53 30
70 100 290 41 131 62 215 53 215 -2 0 -25 -42 -50 -92z"/>
<path d="M4830 2185 c-10 -12 -10 -19 -2 -27 13 -13 42 6 42 28 0 19 -24 18
-40 -1z"/>
<path d="M4443 2165 c-33 -14 -63 -59 -63 -94 0 -35 77 -63 124 -45 29 11 17
27 -14 20 -32 -6 -70 20 -70 48 0 21 48 48 78 44 23 -3 27 -8 30 -41 3 -32 6
-36 18 -26 15 12 19 56 6 75 -9 14 -47 34 -64 34 -7 -1 -27 -7 -45 -15z"/>
<path d="M4130 1903 c-68 -24 -129 -106 -116 -156 10 -40 82 -61 127 -37 22
13 27 45 4 36 -24 -9 -75 14 -75 34 0 20 73 90 93 90 33 0 51 -62 25 -88 -6
-6 -8 -15 -4 -19 4 -4 16 3 27 17 22 27 21 89 -1 115 -12 15 -51 19 -80 8z"/>
<path d="M4130 1805 c-7 -14 -10 -28 -7 -31 9 -9 37 15 37 32 0 24 -17 24 -30
-1z"/>
<path d="M4394 1819 c-40 -11 -94 -72 -94 -105 0 -14 12 -37 26 -51 25 -25 26
-27 8 -40 -21 -15 -50 -17 -59 -3 -7 12 -45 13 -45 2 0 -19 39 -42 70 -42 27
0 43 10 82 50 27 28 46 54 43 60 -3 5 -21 6 -40 3 -30 -5 -35 -3 -35 14 0 36
72 83 127 83 20 0 15 -45 -8 -74 -31 -40 -12 -47 22 -8 33 36 38 81 13 106
-17 17 -61 19 -110 5z"/>
<path d="M4390 1735 c-21 -26 18 -32 43 -6 l21 21 -26 0 c-14 0 -31 -7 -38
-15z"/>
<path d="M4209 1724 c-38 -46 -120 -57 -184 -24 -54 27 -68 9 -19 -24 46 -30
108 -42 145 -27 30 11 99 68 99 82 0 15 -27 10 -41 -7z"/>
<path d="M3893 1528 c-32 -35 -43 -63 -43 -106 0 -47 36 -106 68 -110 32 -5
82 34 82 64 0 32 -11 30 -32 -6 -30 -53 -78 -28 -78 42 0 55 27 98 61 98 28 0
39 -15 39 -57 0 -37 24 -23 28 16 7 69 -79 109 -125 59z"/>
<path d="M3920 1420 c0 -36 13 -39 28 -6 11 25 7 36 -15 36 -8 0 -13 -12 -13
-30z"/>
<path d="M4065 1390 c-10 -11 -20 -41 -23 -68 -8 -85 52 -121 95 -56 19 30 10
43 -16 20 -16 -15 -19 -15 -31 -1 -15 18 -16 73 -1 88 15 15 39 1 43 -25 4
-29 22 -30 26 -1 8 57 -54 86 -93 43z"/>
<path d="M4093 1335 c-7 -20 2 -29 21 -22 9 4 13 13 10 22 -8 19 -23 19 -31 0z"/>
<path d="M3845 1100 c-23 -26 -34 -132 -15 -155 15 -18 51 -20 68 -3 7 7 12
26 12 42 l-1 31 -15 -28 c-30 -56 -56 -7 -35 65 14 44 28 49 37 12 4 -16 10
-22 16 -16 13 13 -12 66 -33 70 -8 1 -24 -7 -34 -18z"/>
<path d="M4016 988 c-19 -31 -28 -76 -21 -99 10 -30 53 -25 66 7 11 31 2 47
-12 21 -6 -9 -14 -17 -19 -17 -15 0 -12 43 3 64 12 17 14 17 20 2 9 -22 27
-21 27 2 0 21 -18 42 -37 42 -7 0 -19 -10 -27 -22z"/>
<path d="M3898 774 c-24 -12 -28 -21 -28 -57 0 -66 42 -91 74 -45 22 32 20 39
-11 36 -23 -2 -27 0 -25 17 5 28 10 31 31 18 31 -19 42 4 15 31 -19 19 -22 19
-56 0z"/>
<path d="M3950 543 c-16 -54 7 -113 44 -113 29 0 54 36 38 52 -6 6 -12 6 -16
-1 -13 -20 -34 -12 -40 15 -10 36 10 56 30 30 7 -11 16 -17 19 -14 7 7 -16 58
-26 58 -4 0 -14 3 -23 6 -11 4 -18 -5 -26 -33z"/>
</g>
</svg>
