<?xml version="1.0" standalone="no"?>
<!DOCTYPE svg PUBLIC "-//W3C//DTD SVG 20010904//EN"
 "http://www.w3.org/TR/2001/REC-SVG-20010904/DTD/svg10.dtd">
<svg version="1.0" xmlns="http://www.w3.org/2000/svg"
 width="627.000000pt" height="627.000000pt" viewBox="0 0 627.000000 627.000000"
 preserveAspectRatio="xMidYMid meet">
<metadata>
Created by potrace 1.11, written by Peter Selinger 2001-2013
</metadata>
<g transform="translate(0.000000,627.000000) scale(0.100000,-0.100000)"
fill="#000000" stroke="none">
<path d="M2845 6009 c-541 -62 -1022 -255 -1457 -585 -133 -101 -421 -389
-522 -522 -336 -444 -529 -930 -587 -1481 -15 -149 -6 -572 15 -706 85 -519
264 -941 572 -1347 101 -133 389 -421 522 -522 416 -315 853 -497 1387 -577
123 -19 637 -19 760 0 534 80 971 262 1387 577 133 101 421 389 522 522 315
416 497 853 577 1387 19 123 19 637 0 760 -80 534 -262 971 -577 1387 -101
133 -389 421 -522 522 -439 333 -918 524 -1467 586 -104 11 -507 11 -610 -1z
m1905 -2915 c0 -8 -19 -13 -24 -6 -3 5 1 9 9 9 8 0 15 -2 15 -3z m-2897 -29
c-3 -9 -8 -14 -10 -11 -3 3 -2 9 2 15 9 16 15 13 8 -4z m2917 11 c0 -3 -4 -8
-10 -11 -5 -3 -10 -1 -10 4 0 6 5 11 10 11 6 0 10 -2 10 -4z"/>
</g>
</svg>
